<?xml version="1.0" encoding="UTF-8"?>
<svg id="Calque_1" xmlns="http://www.w3.org/2000/svg"  width="150" height="41" fill="#FFF" viewBox="0 0 628.55 90.22">
  <path d="M39.71,88.61L0,57.59l8.23-17.23L77.59,9.34l-13.23,27.69-29.77,13.25,17.07,13.35-11.94,24.98ZM7.49,55.82l30.03,23.45,6.64-13.9-21.14-16.53,36.88-16.41,5.24-10.97L12.69,44.94l-5.2,10.89Z"/>
  <path d="M144.11,85.07h-21.9l-9.87-26.02-18.85.09-.32.67h-.34l-12.07,25.26h-24.03L97.32.11h65.92c5.27,0,9.45,2.04,11.79,5.75,2.51,3.97,2.45,9.37-.14,14.8l-9.76,20.43c-4.2,8.8-14.29,16.14-23.69,17.67.21.54.43,1.09.64,1.63,1.93,4.91,3.92,9.99,5.73,14.82l.45,1.19-4.15,8.68ZM126.35,79.07h13.98l1.42-2.96c-1.67-4.42-3.48-9.05-5.24-13.53-.72-1.84-1.44-3.66-2.13-5.44l-1.6-4.09h5.17c8.03,0,18-6.66,21.77-14.55l2.71,1.29-2.71-1.29,9.76-20.43c1.69-3.53,1.86-6.82.48-9.01-1.2-1.9-3.58-2.95-6.71-2.95h-62.14l-34.86,72.97h10.73l13.84-28.97,1.65,3.05,24-.11,9.88,26.04ZM88.56,55.52c-.19.42-.27,1.42.31,2.32h0s2.11-1.14,2.11-1.14l.26.12v-.03l-2.68-1.28ZM147.13,41.91h-52.4l11.84-24.78h52.4l-11.84,24.78ZM104.25,35.91h39.1l6.11-12.78h-39.1l-6.11,12.78Z"/>
  <path d="M229.24,85.07h-47.55c-5.26,0-9.43-2.02-11.74-5.69-2.49-3.95-2.42-9.37.21-14.86l22.25-46.57c4.81-10.07,16.7-17.96,27.07-17.96h47.55c5.23,0,9.39,2.03,11.71,5.71,2.5,3.96,2.43,9.37-.18,14.84l-22.25,46.57c-4.81,10.07-16.7,17.96-27.07,17.96ZM219.48,6c-8.11,0-17.82,6.53-21.66,14.55l-22.25,46.57c-1.72,3.59-1.92,6.9-.55,9.07,1.17,1.86,3.54,2.89,6.67,2.89h47.55c7.97,0,17.89-6.66,21.66-14.55l22.25-46.57c1.7-3.57,1.89-6.87.52-9.05-1.18-1.88-3.54-2.91-6.64-2.91h-47.55ZM238.31,67.94h-52.4l24.28-50.81h52.4l-24.28,50.81ZM195.42,61.94h39.1l18.54-38.81h-39.1l-18.54,38.81Z"/>
  <path d="M361.88,85.07h-24.14l22.13-46.33c-3.06,2.3-6.15,4.63-9.25,6.96-8.12,6.11-16.51,12.43-24.34,18.24l-3.17,2.36-11.36-29.58-23.1,48.35h-24.03L305.27,0h21.91l11.41,30.16L378.72,0h23.82l-40.65,85.07ZM347.25,79.07h10.84L393.01,6h-12.29l-44.91,33.76-12.77-33.76h-13.98l-34.92,73.07h10.73l27.49-57.52,13.52,35.22c6.88-5.13,14.11-10.57,21.13-15.86,6.43-4.84,12.84-9.67,19.03-14.29l9.75-7.28-28.54,59.73Z"/>
  <path d="M448.24,85.07h-47.55c-5.26,0-9.43-2.02-11.75-5.69-2.49-3.95-2.42-9.37.21-14.86l4.33-9.06h24.03l-3.1,6.48h39.1l3.75-7.84h-41.78c-5.26,0-9.43-2.02-11.75-5.69-2.49-3.95-2.42-9.37.21-14.86l7.45-15.6c4.81-10.07,16.7-17.96,27.07-17.96h47.55c5.23,0,9.39,2.03,11.71,5.71,2.5,3.96,2.43,9.37-.18,14.84l-4.33,9.06h-24.25l3.1-6.48h-39.1l-3.75,7.84h42c5.23,0,9.39,2.03,11.71,5.71,2.5,3.96,2.43,9.37-.18,14.84l-7.45,15.6c-4.81,10.07-16.7,17.96-27.07,17.96ZM397.27,61.46l-2.7,5.65c-1.72,3.59-1.92,6.9-.55,9.07,1.17,1.86,3.54,2.89,6.67,2.89h47.55c7.97,0,17.89-6.66,21.66-14.55l7.45-15.6c1.71-3.57,1.89-6.87.52-9.05-1.18-1.88-3.54-2.91-6.64-2.91h-51.52l9.48-19.84h52.4l-3.1,6.48h10.96l2.7-5.65c1.71-3.57,1.89-6.87.52-9.05-1.18-1.88-3.54-2.91-6.64-2.91h-47.55c-8.11,0-17.82,6.53-21.66,14.55l-7.45,15.6c-1.72,3.59-1.92,6.9-.55,9.07,1.17,1.86,3.54,2.89,6.67,2.89h51.29l-9.48,19.84h-52.4l3.1-6.48h-10.73Z"/>
  <path d="M489.62,85.07h-11.94l10.5-21.97L570.9,0h11.94l-10.44,21.86-82.78,63.22ZM487.2,79.07h.39l80.02-61.11,5.72-11.97h-.39l-79.96,61-5.77,12.08Z"/>
  <path d="M550.8,90.22l13.33-27.9,29.55-13.19-6.48-4.85c-1.34-1-2.72-2.15-4.05-3.27-1.56-1.31-3.03-2.54-4.38-3.48l-2.1-1.45,11.99-25.1,39.88,30.89-8.29,17.35-69.46,31.01ZM568.59,66.9l-5.35,11.2,52.56-23.46,5.25-10.99-30.18-23.37-6.62,13.86c.92.73,1.85,1.51,2.76,2.28,1.26,1.06,2.57,2.15,3.78,3.05l14.68,10.97-36.87,16.46Z"/>
</svg>