<?xml version="1.0" encoding="UTF-8"?>
<svg id="Calque_1" xmlns="http://www.w3.org/2000/svg" height="30" width="30" fill="#000" viewBox="0 0 210.38 161.78">
  <path d="M29.48,161.78H0v-29.48h29.48v29.48Z"/>
  <path d="M210.38,74.93c0,17.1-14.18,31.28-31.5,31.28h-8.78l40.28,47.93v7.65h-32.4l-46.8-55.58h-53.1v55.58h-29.7V0h130.5c17.33,0,31.5,14.18,31.5,31.28v43.65ZM178.88,76.5c.9,0,1.58-.67,1.58-1.58V31.28c0-.9-.67-1.58-1.58-1.58h-99.23c-.9,0-1.58.68-1.58,1.58v43.65c0,.9.67,1.58,1.58,1.58h99.23Z"/>
</svg>